<svg width="42" height="40" viewBox="0 0 42 40" fill="none" xmlns="http://www.w3.org/2000/svg">
<path d="M34.7731 31.0089C32.813 32.3738 30.2122 33.6807 27.8474 34.1357C27.8685 34.2308 27.8769 34.6981 27.8769 35.637C27.8769 36.4476 27.8643 37.6016 27.8474 39.169C27.8306 40.9433 25.3773 39.566 23.042 37.8456C20.9219 36.2821 18.8984 34.4417 18.8984 34.4417C11.0581 33.4202 2.58552 29.975 0.418876 21.7281C-0.0616603 19.8959 -0.112243 17.9645 0.182823 16.0661C0.541119 13.6963 1.45161 11.3885 2.75412 9.4074C2.87637 9.22135 3.00703 9.03937 3.13349 8.85315C3.46649 8.38592 3.82058 7.9433 4.21259 7.52146C5.11044 6.51231 6.14317 5.61484 7.26022 4.84143C14.8603 -0.435918 26.3552 -1.10593 34.2125 3.95223C34.4611 4.10939 34.7014 4.27482 34.9375 4.4444C35.7173 4.99859 36.4339 5.62311 37.0662 6.30553C37.6057 6.87214 38.0904 7.48012 38.5246 8.12114C39.6164 9.70939 40.392 11.5043 40.8262 13.3861C42.2889 19.6519 40.2613 27.175 34.7731 31.0089Z" fill="#F89721"/>
<g opacity="0.95">
<g opacity="0.95">
<path opacity="0.95" d="M37.0772 6.30968C36.1794 7.31881 35.1467 8.21633 34.0297 8.98968C26.4296 14.2712 14.9304 14.9371 7.07738 9.8789C6.82872 9.72169 6.58844 9.55628 6.34817 9.38672C5.57257 8.83256 4.85598 8.20804 4.21948 7.52565C5.11733 6.51647 6.15006 5.61899 7.26712 4.84558C14.8671 -0.431766 26.3621 -1.10177 34.2194 3.95637C34.4681 4.11354 34.7083 4.27897 34.9486 4.44854C35.7284 5.00275 36.4408 5.62726 37.0772 6.30968Z" fill="#F15C31"/>
</g>
</g>
<g opacity="0.76">
<g opacity="0.76">
<path opacity="0.76" d="M34.7713 31.0092C32.8112 32.374 30.2104 33.6809 27.8456 34.1359C27.8667 34.231 27.8752 34.6983 27.8752 35.6372C22.8759 33.7099 18.6269 30.3432 17.1811 24.8425C16.7005 23.0104 16.65 21.0789 16.9451 19.1807C17.3413 16.5916 18.3908 14.0646 19.9 11.9678C21.0211 10.4001 22.4375 9.05605 24.0267 7.95593C26.9815 5.90039 30.5181 4.54797 34.2149 3.95654C34.4636 4.11371 34.7038 4.27915 34.9399 4.44871C37.9707 6.59936 40.0066 9.83355 40.8285 13.3946C42.2871 19.6521 40.2596 27.1752 34.7713 31.0092Z" fill="#F37323"/>
</g>
</g>
<g opacity="0.64">
<g opacity="0.64">
<path opacity="0.64" d="M23.0447 37.8457C20.9245 36.2825 18.9012 34.442 18.9012 34.442C11.065 33.4204 2.58819 29.9752 0.421563 21.7283C-0.0589748 19.8962 -0.109558 17.9647 0.185509 16.0664C6.20909 15.1565 12.5952 16.2774 17.4259 19.7059C20.4567 21.8565 22.4926 25.0908 23.3145 28.6518C24.0016 31.613 23.9131 34.8473 23.0447 37.8457Z" fill="#F2673B"/>
</g>
</g>
<path d="M30.3929 28.1715H21.8359C20.799 28.1715 19.821 27.9111 18.9696 27.452C18.4721 27.1873 18.0254 26.8482 17.6334 26.4635C16.5542 25.4088 15.8882 23.9447 15.8882 22.3359V15.9419C15.8882 16.0122 15.8882 16.0825 15.8924 16.1569C15.9304 17.5052 16.3603 18.9238 17.1485 20.0281C17.2033 20.0984 17.2539 20.1728 17.3087 20.2432C17.3467 20.2928 17.3888 20.3383 17.4352 20.3838C17.7471 20.7437 18.1138 21.0456 18.5143 21.2937C19.1972 21.7238 19.977 22.005 20.7778 22.1498C21.132 22.2118 21.4818 22.2573 21.8402 22.2862H21.8443C22.3965 22.3318 22.9445 22.34 23.4967 22.3442H23.8255C24.5505 22.34 25.2545 22.34 25.9669 22.5262C26.9785 22.7867 27.9185 23.3202 28.6562 24.0482C29.1957 24.5734 29.6299 25.2062 29.9292 25.9052V25.9093C30.2285 26.6 30.3929 27.361 30.3929 28.1715Z" fill="white"/>
<path d="M21.8377 11.3636V21.7032C20.611 21.7032 19.4602 21.3351 18.5118 20.7064C18.4866 20.6899 18.4612 20.6733 18.436 20.6568C18.1451 20.4583 17.8754 20.2391 17.6309 19.9951C17.5635 19.9289 17.496 19.8627 17.4328 19.7924C17.3905 19.7428 17.3484 19.7014 17.3063 19.6518C16.4801 18.7047 15.9574 17.4887 15.8942 16.157C15.89 16.0618 15.8857 15.9627 15.8857 15.8674V5.52783C18.5414 5.52783 20.7923 7.23595 21.5552 9.59337C21.7407 10.1518 21.8377 10.7473 21.8377 11.3636Z" fill="white"/>
<path d="M30.3935 28.1673H21.8366C20.7996 28.1673 19.8217 27.9068 18.9702 27.4476C23.9906 26.6577 23.8219 22.344 23.8219 22.344L21.8366 22.2861C22.3887 22.3316 22.9368 22.3399 23.4931 22.344C24.332 22.3481 25.1455 22.3151 25.9633 22.526C26.9749 22.7866 27.9108 23.32 28.6526 24.0438C29.1921 24.5691 29.6263 25.2019 29.9256 25.9008V25.905C30.267 27.183 30.3935 28.1673 30.3935 28.1673Z" fill="white"/>
<path d="M15.8857 15.9419C15.8857 16.0122 15.8857 16.0825 15.89 16.1569H15.8857V15.9419Z" fill="white"/>
<path d="M21.5595 9.59337C16.2777 9.81256 15.8942 16.157 15.8942 16.157C15.89 16.0618 15.8857 15.9627 15.8857 15.8674V5.52783C18.5414 5.52783 20.7923 7.23595 21.5595 9.59337Z" fill="white"/>
</svg>
