<svg width="212" height="21" viewBox="0 0 212 21" fill="none" xmlns="http://www.w3.org/2000/svg">
<path d="M102.247 7.2959C102.247 8.40193 101.982 9.41291 101.454 10.3288C100.944 11.2275 100.161 11.9533 99.1041 12.5063C98.0646 13.0421 96.788 13.3099 95.2742 13.3099H92.7121V19.4795H87.5347V1.20409H95.2742C96.771 1.20409 98.0386 1.46332 99.0771 1.98177C100.134 2.50022 100.926 3.21741 101.454 4.13334C101.982 5.04928 102.247 6.10346 102.247 7.2959ZM94.7721 9.26602C96.2337 9.26602 96.9641 8.60931 96.9641 7.2959C96.9641 5.96521 96.2337 5.29986 94.7721 5.29986H92.7121V9.26602H94.7721ZM117.005 16.4984H110.402L109.398 19.4795H103.957L110.745 1.20409H116.714L123.476 19.4795H118.009L117.005 16.4984ZM115.711 12.61L113.704 6.69968L111.723 12.61H115.711ZM135.491 19.4795L131.794 12.7396H131.238V19.4795H126.062V1.20409H134.223C135.72 1.20409 136.988 1.46332 138.027 1.98177C139.065 2.48294 139.849 3.18285 140.378 4.0815C140.906 4.96287 141.17 5.95657 141.17 7.0626C141.17 8.30688 140.818 9.40427 140.114 10.3548C139.426 11.288 138.414 11.9533 137.076 12.3508L141.275 19.4795H135.491ZM131.238 9.26602H133.801C134.505 9.26602 135.033 9.10184 135.385 8.77349C135.737 8.44514 135.914 7.96989 135.914 7.34775C135.914 6.76017 135.729 6.3022 135.359 5.97385C135.007 5.62821 134.487 5.4554 133.801 5.4554H131.238V9.26602ZM149.599 5.27394V8.25504H155.542V12.1175H149.599V15.4097H156.334V19.4795H144.422V1.20409H156.334V5.27394H149.599ZM177.038 19.4795H171.862L164.967 9.26602V19.4795H159.791V1.20409H164.967L171.862 11.5472V1.20409H177.038V19.4795ZM194.911 1.20409V5.24802H189.945V19.4795H184.768V5.24802H179.855V1.20409H194.911ZM204.75 19.661C202.585 19.661 200.806 19.1598 199.415 18.1575C198.023 17.1378 197.275 15.6862 197.17 13.8025H202.69C202.743 14.4419 202.937 14.9085 203.271 15.2023C203.605 15.4961 204.037 15.643 204.565 15.643C205.041 15.643 205.428 15.5306 205.727 15.306C206.044 15.064 206.202 14.7357 206.202 14.3209C206.202 13.7852 205.947 13.3704 205.437 13.0766C204.926 12.7828 204.098 12.4545 202.954 12.0916C201.739 11.6941 200.753 11.3139 199.995 10.951C199.256 10.5708 198.605 10.0264 198.041 9.31786C197.495 8.59203 197.222 7.65018 197.222 6.4923C197.222 5.31714 197.522 4.3148 198.12 3.48528C198.719 2.63848 199.547 1.99905 200.604 1.56701C201.66 1.13497 202.857 0.918945 204.195 0.918945C206.361 0.918945 208.087 1.42012 209.372 2.42246C210.675 3.40751 211.371 4.79869 211.459 6.59599H205.833C205.815 6.04298 205.639 5.62821 205.305 5.35171C204.988 5.0752 204.574 4.93694 204.063 4.93694C203.676 4.93694 203.359 5.04928 203.113 5.27394C202.866 5.4986 202.743 5.81831 202.743 6.23308C202.743 6.57871 202.875 6.88114 203.139 7.14036C203.421 7.38231 203.764 7.59833 204.169 7.78843C204.574 7.96125 205.173 8.18591 205.965 8.46242C207.145 8.8599 208.113 9.25738 208.871 9.65486C209.645 10.0351 210.305 10.5794 210.851 11.288C211.415 11.9792 211.697 12.8606 211.697 13.9321C211.697 15.0208 211.415 15.9972 210.851 16.8613C210.305 17.7254 209.504 18.408 208.447 18.9092C207.409 19.4104 206.176 19.661 204.75 19.661Z" fill="white"/>
<path d="M3.4514 1.5647V16.6481H8.72042V19.1421H0.749512V1.5647H3.4514Z" fill="white"/>
<path d="M15.1742 1.5647H12.4722V19.1421H15.1742V1.5647Z" fill="white"/>
<path d="M20.6694 19.142V0.369385L33.7322 13.7819V1.56465H36.4385V20.2132L23.371 6.83786V19.142H20.6694Z" fill="white"/>
<path d="M51.3198 9.98919H58.7215V10.5682C58.7215 11.8875 58.5607 13.058 58.2454 14.0754C57.9373 15.0183 57.4153 15.8993 56.6768 16.7182C55.0121 18.5545 52.9 19.4727 50.3288 19.4727C47.825 19.4727 45.6752 18.5835 43.8883 16.8092C42.1005 15.0266 41.2075 12.8842 41.2075 10.3862C41.2075 7.83436 42.1176 5.67132 43.9341 3.89704C45.7507 2.11446 47.9634 1.22119 50.5687 1.22119C51.9684 1.22119 53.2755 1.50237 54.4937 2.06482C55.6527 2.62736 56.7954 3.53721 57.9157 4.79868L55.9896 6.61018C54.5189 4.69111 52.7275 3.73162 50.6199 3.73162C48.7225 3.73162 47.1333 4.37264 45.8522 5.65475C44.5666 6.91622 43.926 8.49194 43.926 10.3904C43.926 12.3466 44.6429 13.9637 46.0714 15.2293C47.4073 16.4039 48.8627 16.9953 50.4214 16.9953C51.7537 16.9953 52.9467 16.5527 54.0086 15.6759C55.0669 14.7867 55.6616 13.7238 55.7829 12.4872H51.3153V9.98919H51.3198Z" fill="white"/>
<path d="M62.4175 10.2748C62.4175 7.80156 63.3401 5.67573 65.1908 3.8973C67.0334 2.12301 69.2461 1.23389 71.8299 1.23389C74.3849 1.23389 76.5716 2.1313 78.3971 3.92216C80.2307 5.71294 81.1461 7.86363 81.1461 10.3782C81.1461 12.9052 80.2271 15.0517 78.3845 16.8095C76.5338 18.5796 74.304 19.4605 71.6906 19.4605C69.3764 19.4605 67.302 18.6748 65.4603 17.1031C63.4291 15.3661 62.4175 13.0914 62.4175 10.2748ZM65.145 10.3079C65.145 12.2518 65.8107 13.8482 67.1385 15.1013C68.4618 16.3545 69.9882 16.979 71.7203 16.979C73.6006 16.979 75.1853 16.3421 76.479 15.0641C77.7691 13.7737 78.4177 12.2021 78.4177 10.3492C78.4177 8.47572 77.7817 6.90414 76.5042 5.63438C75.2357 4.36056 73.6635 3.71946 71.7921 3.71946C69.9289 3.71946 68.3522 4.35641 67.0711 5.63438C65.7846 6.89991 65.145 8.455 65.145 10.3079Z" fill="white"/>
</svg>
