<svg width="19" height="19" viewBox="0 0 19 19" fill="none" xmlns="http://www.w3.org/2000/svg">
<path fill-rule="evenodd" clip-rule="evenodd" d="M1.81573 18.1673C1.53504 18.448 1.07995 18.448 0.799259 18.1673C0.518574 17.8866 0.518574 17.4315 0.799259 17.1508L8.46683 9.48328L0.799259 1.81573C0.518574 1.53504 0.518574 1.07995 0.799259 0.799262C1.07995 0.518573 1.53504 0.518573 1.81573 0.799262L9.48328 8.46683L17.1508 0.799262C17.4315 0.518573 17.8866 0.518573 18.1673 0.799262C18.448 1.07995 18.448 1.53504 18.1673 1.81573L10.4997 9.48328L18.1673 17.1508C18.448 17.4315 18.448 17.8866 18.1673 18.1673C17.8866 18.448 17.4315 18.448 17.1508 18.1673L9.48328 10.4997L1.81573 18.1673Z" fill="white"/>
</svg>
