<svg width="21" height="22" viewBox="0 0 21 22" fill="none" xmlns="http://www.w3.org/2000/svg">
<path d="M9.84375 13.625H5.90625C5.38411 13.625 4.88335 13.8324 4.51413 14.2016C4.14492 14.5708 3.9375 15.0716 3.9375 15.5938V16.9062H5.25V15.5938C5.25 15.4197 5.31914 15.2528 5.44221 15.1297C5.56528 15.0066 5.7322 14.9375 5.90625 14.9375H9.84375C10.0178 14.9375 10.1847 15.0066 10.3078 15.1297C10.4309 15.2528 10.5 15.4197 10.5 15.5938V16.9062H11.8125V15.5938C11.8125 15.0716 11.6051 14.5708 11.2359 14.2016C10.8667 13.8324 10.3659 13.625 9.84375 13.625Z" fill="white"/>
<path d="M7.875 12.9688C8.39418 12.9688 8.90169 12.8148 9.33337 12.5264C9.76505 12.2379 10.1015 11.828 10.3002 11.3483C10.4989 10.8686 10.5508 10.3408 10.4496 9.83164C10.3483 9.32244 10.0983 8.85471 9.73115 8.4876C9.36404 8.12048 8.89631 7.87048 8.38711 7.76919C7.87791 7.6679 7.35011 7.71989 6.87046 7.91857C6.3908 8.11725 5.98083 8.4537 5.69239 8.88538C5.40395 9.31706 5.25 9.82458 5.25 10.3438C5.25 11.0399 5.52656 11.7076 6.01884 12.1999C6.51113 12.6922 7.17881 12.9688 7.875 12.9688ZM7.875 9.03125C8.13459 9.03125 8.38835 9.10823 8.60419 9.25245C8.82002 9.39667 8.98825 9.60165 9.08759 9.84148C9.18693 10.0813 9.21292 10.3452 9.16228 10.5998C9.11164 10.8544 8.98663 11.0883 8.80308 11.2718C8.61952 11.4554 8.38566 11.5804 8.13106 11.631C7.87646 11.6817 7.61256 11.6557 7.37273 11.5563C7.1329 11.457 6.92792 11.2888 6.7837 11.0729C6.63948 10.8571 6.5625 10.6033 6.5625 10.3438C6.5625 9.99565 6.70078 9.66182 6.94692 9.41567C7.19306 9.16953 7.5269 9.03125 7.875 9.03125Z" fill="white"/>
<path d="M18.375 12.9688V18.875H2.625V5.75H10.5V4.4375H2.625C2.2769 4.4375 1.94306 4.57578 1.69692 4.82192C1.45078 5.06806 1.3125 5.4019 1.3125 5.75V18.875C1.3125 19.2231 1.45078 19.5569 1.69692 19.8031C1.94306 20.0492 2.2769 20.1875 2.625 20.1875H18.375C18.7231 20.1875 19.0569 20.0492 19.3031 19.8031C19.5492 19.5569 19.6875 19.2231 19.6875 18.875V12.9688H18.375Z" fill="white"/>
<path d="M13.125 12.9688H17.0625V14.2812H13.125V12.9688Z" fill="white"/>
<path d="M14.4375 15.5938H17.0625V16.9062H14.4375V15.5938Z" fill="white"/>
<path d="M21 7.0625V5.75H19.6212C19.5366 5.3392 19.3735 4.94859 19.1408 4.59959L20.1187 3.62178L19.1907 2.69384L18.2129 3.67166C17.8639 3.43902 17.4733 3.27592 17.0625 3.19128V1.8125H15.75V3.19128C15.3392 3.27592 14.9486 3.43902 14.5996 3.67166L13.6218 2.69384L12.6938 3.62178L13.6717 4.59959C13.439 4.94859 13.2759 5.3392 13.1913 5.75H11.8125V7.0625H13.1913C13.2759 7.4733 13.439 7.86391 13.6717 8.21291L12.6938 9.19072L13.6218 10.1187L14.5996 9.14084C14.9486 9.37348 15.3392 9.53658 15.75 9.62122V11H17.0625V9.62122C17.4733 9.53658 17.8639 9.37348 18.2129 9.14084L19.1907 10.1187L20.1187 9.19072L19.1408 8.21291C19.3735 7.86391 19.5366 7.4733 19.6212 7.0625H21ZM16.4062 8.375C16.0169 8.375 15.6362 8.25953 15.3125 8.04321C14.9887 7.82688 14.7364 7.5194 14.5874 7.15966C14.4384 6.79992 14.3994 6.40407 14.4753 6.02217C14.5513 5.64027 14.7388 5.28947 15.0141 5.01413C15.2895 4.7388 15.6403 4.55129 16.0222 4.47533C16.4041 4.39936 16.7999 4.43835 17.1597 4.58736C17.5194 4.73637 17.8269 4.98871 18.0432 5.31247C18.2595 5.63623 18.375 6.01687 18.375 6.40625C18.3745 6.92824 18.1669 7.42869 17.7978 7.79779C17.4287 8.16689 16.9282 8.37448 16.4062 8.375Z" fill="white"/>
</svg>
