<svg width="21" height="22" viewBox="0 0 21 22" fill="none" xmlns="http://www.w3.org/2000/svg">
<path fill-rule="evenodd" clip-rule="evenodd" d="M3.9199 1.90002H3.8499C3.5293 1.90002 3.2535 1.90002 3.0099 1.95742C2.63279 2.04754 2.28799 2.24029 2.01371 2.51433C1.73942 2.78837 1.54635 3.133 1.4559 3.51002C1.3999 3.75362 1.3999 4.02802 1.3999 4.35002V7.85002C1.3999 8.17062 1.3999 8.44642 1.4573 8.69002C1.54741 9.06713 1.74017 9.41193 2.01421 9.68622C2.28825 9.96051 2.63287 10.1536 3.0099 10.244C3.2535 10.3 3.5279 10.3 3.8499 10.3H7.3499C7.6705 10.3 7.9463 10.3 8.1899 10.2426C8.56701 10.1525 8.91181 9.95976 9.1861 9.68572C9.46039 9.41168 9.65345 9.06705 9.7439 8.69002C9.7999 8.44642 9.7999 8.17202 9.7999 7.85002V4.35002C9.7999 4.02942 9.7999 3.75362 9.7425 3.51002C9.65239 3.13292 9.45964 2.78811 9.1856 2.51383C8.91156 2.23954 8.56693 2.04648 8.1899 1.95602C7.9463 1.90002 7.6719 1.90002 7.3499 1.90002H3.9199ZM3.3361 3.31962C3.3963 3.30562 3.4901 3.30002 3.9199 3.30002H7.2799C7.7111 3.30002 7.8035 3.30422 7.8637 3.31962C7.98947 3.3497 8.10444 3.41402 8.19587 3.50545C8.28731 3.59689 8.35163 3.71186 8.3817 3.83762C8.3957 3.89642 8.3999 3.98882 8.3999 4.42002V7.78002C8.3999 8.21122 8.3957 8.30362 8.3803 8.36382C8.35023 8.48959 8.28591 8.60456 8.19447 8.69599C8.10304 8.78743 7.98807 8.85175 7.8623 8.88182C7.8049 8.89442 7.7125 8.90002 7.2799 8.90002H3.9199C3.4887 8.90002 3.3963 8.89582 3.3361 8.88042C3.21034 8.85035 3.09537 8.78603 3.00393 8.69459C2.9125 8.60316 2.84818 8.48819 2.8181 8.36242C2.8055 8.30502 2.7999 8.21262 2.7999 7.78002V4.42002C2.7999 3.98882 2.8041 3.89642 2.8195 3.83622C2.84958 3.71046 2.9139 3.59549 3.00533 3.50405C3.09677 3.41262 3.21174 3.3483 3.3375 3.31822L3.3361 3.31962ZM13.7199 1.90002H13.6499C13.3293 1.90002 13.0535 1.90002 12.8099 1.95742C12.4328 2.04754 12.088 2.24029 11.8137 2.51433C11.5394 2.78837 11.3464 3.133 11.2559 3.51002C11.1999 3.75362 11.1999 4.02802 11.1999 4.35002V7.85002C11.1999 8.17062 11.1999 8.44642 11.2573 8.69002C11.3474 9.06713 11.5402 9.41193 11.8142 9.68622C12.0882 9.96051 12.4329 10.1536 12.8099 10.244C13.0535 10.3 13.3279 10.3 13.6499 10.3H17.1499C17.4705 10.3 17.7463 10.3 17.9899 10.2426C18.367 10.1525 18.7118 9.95976 18.9861 9.68572C19.2604 9.41168 19.4535 9.06705 19.5439 8.69002C19.5999 8.44642 19.5999 8.17202 19.5999 7.85002V4.35002C19.5999 4.02942 19.5999 3.75362 19.5425 3.51002C19.4524 3.13292 19.2596 2.78811 18.9856 2.51383C18.7116 2.23954 18.3669 2.04648 17.9899 1.95602C17.7463 1.90002 17.4719 1.90002 17.1499 1.90002H13.7199ZM13.1361 3.31962C13.1963 3.30562 13.2901 3.30002 13.7199 3.30002H17.0799C17.5111 3.30002 17.6035 3.30422 17.6637 3.31962C17.7895 3.3497 17.9044 3.41402 17.9959 3.50545C18.0873 3.59689 18.1516 3.71186 18.1817 3.83762C18.1957 3.89642 18.1999 3.98882 18.1999 4.42002V7.78002C18.1999 8.21122 18.1943 8.30362 18.1803 8.36382C18.1502 8.48959 18.0859 8.60456 17.9945 8.69599C17.903 8.78743 17.7881 8.85175 17.6623 8.88182C17.6035 8.89582 17.5111 8.90002 17.0799 8.90002H13.7199C13.2887 8.90002 13.1963 8.89582 13.1361 8.88042C13.0103 8.85035 12.8954 8.78603 12.8039 8.69459C12.7125 8.60316 12.6482 8.48819 12.6181 8.36242C12.6055 8.30502 12.5999 8.21262 12.5999 7.78002V4.42002C12.5999 3.98882 12.6041 3.89642 12.6195 3.83622C12.6496 3.71046 12.7139 3.59549 12.8053 3.50405C12.8968 3.41262 13.0117 3.3483 13.1375 3.31822L13.1361 3.31962ZM3.8499 11.7H7.3499C7.6705 11.7 7.9463 11.7 8.1899 11.7574C8.56701 11.8475 8.91181 12.0403 9.1861 12.3143C9.46039 12.5884 9.65345 12.933 9.7439 13.31C9.7999 13.5536 9.7999 13.828 9.7999 14.15V17.65C9.7999 17.9706 9.7999 18.2464 9.7425 18.49C9.65239 18.8671 9.45964 19.2119 9.1856 19.4862C8.91156 19.7605 8.56693 19.9536 8.1899 20.044C7.9463 20.1 7.6719 20.1 7.3499 20.1H3.8499C3.5293 20.1 3.2535 20.1 3.0099 20.0426C2.63279 19.9525 2.28799 19.7598 2.01371 19.4857C1.73942 19.2117 1.54635 18.8671 1.4559 18.49C1.3999 18.2464 1.3999 17.972 1.3999 17.65V14.15C1.3999 13.8294 1.3999 13.5536 1.4573 13.31C1.54741 12.9329 1.74017 12.5881 2.01421 12.3138C2.28825 12.0395 2.63287 11.8465 3.0099 11.756C3.2535 11.7 3.5279 11.7 3.8499 11.7ZM3.9199 13.1C3.4887 13.1 3.3963 13.1042 3.3361 13.1196C3.21034 13.1497 3.09537 13.214 3.00393 13.3055C2.9125 13.3969 2.84818 13.5119 2.8181 13.6376C2.8055 13.695 2.7999 13.7874 2.7999 14.22V17.58C2.7999 18.0112 2.8041 18.1036 2.8195 18.1638C2.84958 18.2896 2.9139 18.4046 3.00533 18.496C3.09677 18.5874 3.21174 18.6518 3.3375 18.6818C3.3963 18.6958 3.4887 18.7 3.9199 18.7H7.2799C7.7111 18.7 7.8035 18.6944 7.8637 18.6804C7.98947 18.6504 8.10444 18.586 8.19587 18.4946C8.28731 18.4032 8.35163 18.2882 8.3817 18.1624C8.3957 18.1036 8.3999 18.0112 8.3999 17.58V14.22C8.3999 13.7888 8.3957 13.6964 8.3803 13.6362C8.35023 13.5105 8.28591 13.3955 8.19447 13.3041C8.10304 13.2126 7.98807 13.1483 7.8623 13.1182C7.8049 13.1056 7.7125 13.1 7.2799 13.1H3.9199ZM13.7199 11.7H13.6499C13.3293 11.7 13.0535 11.7 12.8099 11.7574C12.4328 11.8475 12.088 12.0403 11.8137 12.3143C11.5394 12.5884 11.3464 12.933 11.2559 13.31C11.1999 13.5536 11.1999 13.828 11.1999 14.15V17.65C11.1999 17.9706 11.1999 18.2464 11.2573 18.49C11.3474 18.8671 11.5402 19.2119 11.8142 19.4862C12.0882 19.7605 12.4329 19.9536 12.8099 20.044C13.0535 20.1014 13.3293 20.1014 13.6499 20.1014H17.1499C17.4705 20.1014 17.7463 20.1014 17.9899 20.044C18.3668 19.9537 18.7113 19.7608 18.9853 19.4868C19.2593 19.2128 19.4522 18.8683 19.5425 18.4914C19.5999 18.2478 19.5999 17.972 19.5999 17.6514V14.15C19.5999 13.8294 19.5999 13.5536 19.5425 13.31C19.4524 12.9329 19.2596 12.5881 18.9856 12.3138C18.7116 12.0395 18.3669 11.8465 17.9899 11.756C17.7463 11.7 17.4719 11.7 17.1499 11.7H13.7199ZM13.1361 13.1196C13.1963 13.1056 13.2901 13.1 13.7199 13.1H17.0799C17.5111 13.1 17.6035 13.1042 17.6637 13.1196C17.7895 13.1497 17.9044 13.214 17.9959 13.3055C18.0873 13.3969 18.1516 13.5119 18.1817 13.6376C18.1957 13.6964 18.1999 13.7888 18.1999 14.22V17.58C18.1999 18.0112 18.1943 18.1036 18.1803 18.1638C18.1502 18.2896 18.0859 18.4046 17.9945 18.496C17.903 18.5874 17.7881 18.6518 17.6623 18.6818C17.6035 18.6958 17.5111 18.7 17.0799 18.7H13.7199C13.2887 18.7 13.1963 18.6944 13.1361 18.6804C13.0103 18.6504 12.8954 18.586 12.8039 18.4946C12.7125 18.4032 12.6482 18.2882 12.6181 18.1624C12.6055 18.105 12.5999 18.0126 12.5999 17.58V14.22C12.5999 13.7888 12.6041 13.6964 12.6195 13.6362C12.6496 13.5105 12.7139 13.3955 12.8053 13.3041C12.8968 13.2126 13.0117 13.1483 13.1375 13.1182L13.1361 13.1196Z" fill="white"/>
</svg>
