<svg width="24" height="14" viewBox="0 0 24 14" fill="none" xmlns="http://www.w3.org/2000/svg">
<path d="M22.5029 0.683249L22.503 0.683221C22.7314 0.438919 23.0869 0.438949 23.3153 0.683175C23.5616 0.946611 23.5616 1.3867 23.3153 1.65002L23.3152 1.65009L12.4064 13.3168L12.4063 13.3168C12.2926 13.4385 12.1457 13.5 12.0003 13.5C11.8548 13.5 11.7079 13.4385 11.5941 13.3168L11.2289 13.6583L11.5941 13.3168L0.684739 1.65016C0.684738 1.65016 0.684736 1.65016 0.684735 1.65015C0.43842 1.38673 0.438422 0.946675 0.684739 0.683253L0.684768 0.683221C0.913169 0.438918 1.26871 0.43895 1.49708 0.683175L1.49708 0.683179L11.635 11.5249L12.0003 11.9155L12.3655 11.5249L22.5029 0.683249Z" fill="white" stroke="white"/>
</svg>
