<svg width="21" height="22" viewBox="0 0 21 22" fill="none" xmlns="http://www.w3.org/2000/svg">
<g clip-path="url(#clip0_1570:20034)">
<path d="M3.9375 0.5C4.08668 0.5 4.22976 0.559263 4.33525 0.664752C4.44074 0.770242 4.5 0.913316 4.5 1.0625V1.625H13.5V1.0625C13.5 0.913316 13.5593 0.770242 13.6648 0.664752C13.7702 0.559263 13.9133 0.5 14.0625 0.5C14.2117 0.5 14.3548 0.559263 14.4602 0.664752C14.5657 0.770242 14.625 0.913316 14.625 1.0625V1.625H15.75C16.3467 1.625 16.919 1.86205 17.341 2.28401C17.7629 2.70597 18 3.27826 18 3.875V16.25C18 16.8467 17.7629 17.419 17.341 17.841C16.919 18.2629 16.3467 18.5 15.75 18.5H2.25C1.65326 18.5 1.08097 18.2629 0.65901 17.841C0.237053 17.419 0 16.8467 0 16.25V3.875C0 3.27826 0.237053 2.70597 0.65901 2.28401C1.08097 1.86205 1.65326 1.625 2.25 1.625H3.375V1.0625C3.375 0.913316 3.43426 0.770242 3.53975 0.664752C3.64524 0.559263 3.78832 0.5 3.9375 0.5V0.5ZM2.25 2.75C1.95163 2.75 1.66548 2.86853 1.4545 3.0795C1.24353 3.29048 1.125 3.57663 1.125 3.875V16.25C1.125 16.5484 1.24353 16.8345 1.4545 17.0455C1.66548 17.2565 1.95163 17.375 2.25 17.375H15.75C16.0484 17.375 16.3345 17.2565 16.5455 17.0455C16.7565 16.8345 16.875 16.5484 16.875 16.25V3.875C16.875 3.57663 16.7565 3.29048 16.5455 3.0795C16.3345 2.86853 16.0484 2.75 15.75 2.75H2.25Z" fill="white"/>
<path d="M2.8125 5C2.8125 4.85082 2.87176 4.70774 2.97725 4.60225C3.08274 4.49676 3.22582 4.4375 3.375 4.4375H14.625C14.7742 4.4375 14.9173 4.49676 15.0227 4.60225C15.1282 4.70774 15.1875 4.85082 15.1875 5V6.125C15.1875 6.27418 15.1282 6.41726 15.0227 6.52275C14.9173 6.62824 14.7742 6.6875 14.625 6.6875H3.375C3.22582 6.6875 3.08274 6.62824 2.97725 6.52275C2.87176 6.41726 2.8125 6.27418 2.8125 6.125V5Z" fill="white"/>
</g>
<defs>
<clipPath id="clip0_1570:20034">
<rect width="21" height="21" fill="white" transform="translate(0 0.5)"/>
</clipPath>
</defs>
</svg>
