<svg width="22" height="19" viewBox="0 0 22 19" fill="none" xmlns="http://www.w3.org/2000/svg">
<path d="M21.0829 9.39532C20.259 7.65953 19.2786 6.24391 18.1415 5.14844L16.949 6.34094C17.9215 7.27024 18.7685 8.48594 19.5009 10C17.5509 14.0359 14.7829 15.9531 11.0001 15.9531C9.86466 15.9531 8.81881 15.7783 7.86256 15.4286L6.57045 16.7207C7.89857 17.334 9.37513 17.6406 11.0001 17.6406C15.5048 17.6406 18.8658 15.2945 21.0829 10.6023C21.1721 10.4136 21.2183 10.2075 21.2183 9.99883C21.2183 9.79013 21.1721 9.58402 21.0829 9.39532ZM19.593 1.88032L18.5939 0.880003C18.5765 0.86257 18.5558 0.848741 18.533 0.839305C18.5103 0.829869 18.4859 0.825012 18.4612 0.825012C18.4366 0.825012 18.4122 0.829869 18.3894 0.839305C18.3667 0.848741 18.346 0.86257 18.3286 0.880003L15.7652 3.44219C14.3519 2.72032 12.7636 2.35938 11.0001 2.35938C6.49545 2.35938 3.13451 4.70547 0.917323 9.39766C0.828203 9.58637 0.781982 9.79248 0.781982 10.0012C0.781982 10.2099 0.828203 10.416 0.917323 10.6047C1.8031 12.4703 2.86951 13.9657 4.11654 15.0909L1.63639 17.5703C1.60125 17.6055 1.58151 17.6531 1.58151 17.7029C1.58151 17.7526 1.60125 17.8002 1.63639 17.8354L2.63693 18.8359C2.67209 18.8711 2.71976 18.8908 2.76947 18.8908C2.81918 18.8908 2.86685 18.8711 2.90201 18.8359L19.593 2.14563C19.6105 2.12821 19.6243 2.10754 19.6337 2.08477C19.6432 2.06201 19.648 2.03761 19.648 2.01297C19.648 1.98833 19.6432 1.96393 19.6337 1.94117C19.6243 1.91841 19.6105 1.89773 19.593 1.88032ZM2.49935 10C4.4517 5.96407 7.21966 4.04688 11.0001 4.04688C12.2784 4.04688 13.4407 4.26625 14.4951 4.71227L12.8475 6.35992C12.0672 5.94359 11.1737 5.78907 10.2989 5.91917C9.42408 6.04927 8.61425 6.4571 7.98886 7.08248C7.36348 7.70787 6.95565 8.5177 6.82555 9.39252C6.69545 10.2673 6.84997 11.1608 7.26631 11.9411L5.31115 13.8963C4.22904 12.9412 3.29623 11.6472 2.49935 10ZM8.28138 10C8.28179 9.58672 8.37969 9.17936 8.56711 8.81101C8.75454 8.44267 9.02621 8.12373 9.36005 7.8801C9.6939 7.63648 10.0805 7.47504 10.4885 7.4089C10.8964 7.34276 11.3142 7.37379 11.7079 7.49946L8.40584 10.8016C8.32307 10.5424 8.28109 10.272 8.28138 10Z" fill="#F9663A"/>
</svg>
