<svg width="16" height="16" viewBox="0 0 16 16" fill="none" xmlns="http://www.w3.org/2000/svg">
<path d="M15 12.5L14.293 11.793L13 13.086V9H12V13.086L10.707 11.793L10 12.5L12.5 15L15 12.5Z" fill="#555555"/>
<path d="M9 13.9999H4V1.99993H8V4.99993C8.00079 5.2649 8.1064 5.51879 8.29377 5.70616C8.48113 5.89352 8.73503 5.99913 9 5.99993H12V7.49993H13V4.99993C13.0018 4.93421 12.9893 4.8689 12.9634 4.80848C12.9375 4.74806 12.8988 4.69397 12.85 4.64993L9.35 1.14993C9.30598 1.1011 9.25189 1.0624 9.19147 1.0365C9.13104 1.01061 9.06572 0.998128 9 0.999926H4C3.73503 1.00072 3.48113 1.10633 3.29377 1.29369C3.1064 1.48106 3.00079 1.73495 3 1.99993V13.9999C3.00079 14.2649 3.1064 14.5188 3.29377 14.7062C3.48113 14.8935 3.73503 14.9991 4 14.9999H9V13.9999ZM9 2.19993L11.8 4.99993H9V2.19993Z" fill="#555555"/>
</svg>
