<svg width="20" height="20" viewBox="0 0 20 20" fill="none" xmlns="http://www.w3.org/2000/svg">
<path d="M13.2475 14.11L14.9275 12.43C15.1538 12.2065 15.4401 12.0536 15.7516 11.9897C16.0631 11.9257 16.3865 11.9537 16.6825 12.07L18.73 12.8875C19.0291 13.0089 19.2856 13.2161 19.4671 13.4831C19.6486 13.75 19.7471 14.0647 19.75 14.3875V18.1375C19.7483 18.3571 19.7021 18.574 19.6143 18.7753C19.5265 18.9766 19.3989 19.158 19.2391 19.3087C19.0794 19.4593 18.8908 19.5761 18.6847 19.6519C18.4786 19.7278 18.2593 19.7611 18.04 19.75C3.69251 18.8575 0.797509 6.7075 0.250009 2.0575C0.224594 1.82915 0.247815 1.59801 0.318145 1.37928C0.388475 1.16055 0.50432 0.959194 0.658059 0.788452C0.811798 0.61771 0.999947 0.481454 1.21013 0.388648C1.42031 0.295842 1.64776 0.24859 1.87751 0.25H5.50001C5.82327 0.250957 6.13884 0.348601 6.40615 0.530372C6.67347 0.712144 6.88028 0.96973 7.00001 1.27L7.81751 3.3175C7.9377 3.6123 7.96836 3.93598 7.90567 4.24811C7.84298 4.56024 7.68971 4.84697 7.46501 5.0725L5.78501 6.7525C5.78501 6.7525 6.75251 13.3 13.2475 14.11Z" fill="white"/>
</svg>
