<svg width="23" height="10" viewBox="0 0 23 10" fill="none" xmlns="http://www.w3.org/2000/svg">
<path d="M2.926 0.228V10H0.966V0.228H2.926ZM8.27848 0.228C9.30515 0.228 10.2058 0.428666 10.9805 0.83C11.7645 1.23133 12.3665 1.80533 12.7865 2.552C13.2158 3.28933 13.4305 4.148 13.4305 5.128C13.4305 6.108 13.2158 6.96667 12.7865 7.704C12.3665 8.432 11.7645 8.99667 10.9805 9.398C10.2058 9.79933 9.30515 10 8.27848 10H4.86248V0.228H8.27848ZM8.20848 8.334C9.23515 8.334 10.0285 8.054 10.5885 7.494C11.1485 6.934 11.4285 6.14533 11.4285 5.128C11.4285 4.11067 11.1485 3.31733 10.5885 2.748C10.0285 2.16933 9.23515 1.88 8.20848 1.88H6.82248V8.334H8.20848ZM19.9376 10L17.7816 6.192H16.8576V10H14.8976V0.228H18.5656C19.3216 0.228 19.9656 0.363333 20.4976 0.634C21.0296 0.895333 21.4263 1.25467 21.6876 1.712C21.9583 2.16 22.0936 2.664 22.0936 3.224C22.0936 3.868 21.907 4.45133 21.5336 4.974C21.1603 5.48733 20.605 5.842 19.8676 6.038L22.2056 10H19.9376ZM16.8576 4.722H18.4956C19.0276 4.722 19.4243 4.596 19.6856 4.344C19.947 4.08267 20.0776 3.72333 20.0776 3.266C20.0776 2.818 19.947 2.47267 19.6856 2.23C19.4243 1.978 19.0276 1.852 18.4956 1.852H16.8576V4.722Z" fill="#F9663A"/>
</svg>
