<svg width="13" height="15" viewBox="0 0 13 15" fill="none" xmlns="http://www.w3.org/2000/svg">
<path d="M9.17891 9.29961H8.64784L8.45961 9.0936C9.11841 8.22377 9.51503 7.09451 9.51503 5.86606C9.51503 3.12686 7.55881 0.906494 5.14546 0.906494C2.73211 0.906494 0.775879 3.12686 0.775879 5.86606C0.775879 8.60527 2.73211 10.8256 5.14546 10.8256C6.22777 10.8256 7.22269 10.3755 7.98904 9.62771L8.17055 9.84135V10.4441L11.5318 14.2516L12.5334 13.1147L9.17891 9.29961ZM5.14546 9.29961C3.47157 9.29961 2.12036 7.76596 2.12036 5.86606C2.12036 3.96617 3.47157 2.43252 5.14546 2.43252C6.81934 2.43252 8.17055 3.96617 8.17055 5.86606C8.17055 7.76596 6.81934 9.29961 5.14546 9.29961Z" fill="#797979"/>
</svg>
