<svg width="18" height="18" viewBox="0 0 18 18" fill="none" xmlns="http://www.w3.org/2000/svg">
<g clip-path="url(#clip0_1667_18761)">
<path d="M17.25 14.25C17.25 15.0456 16.9339 15.8087 16.3713 16.3713C15.8087 16.9339 15.0456 17.25 14.25 17.25H12.75V15.75H14.25C14.6478 15.75 15.0294 15.592 15.3107 15.3107C15.592 15.0294 15.75 14.6478 15.75 14.25C15.75 13.8522 15.592 13.4706 15.3107 13.1893C15.0294 12.908 14.6478 12.75 14.25 12.75H12.75V11.25H14.25C15.0456 11.25 15.8087 11.5661 16.3713 12.1287C16.9339 12.6913 17.25 13.4544 17.25 14.25Z" fill="#F9663A"/>
<path d="M6.75 14.25C6.75 13.4544 7.06607 12.6913 7.62868 12.1287C8.19129 11.5661 8.95435 11.25 9.75 11.25H11.25V12.75H9.75C9.35218 12.75 8.97064 12.908 8.68934 13.1893C8.40804 13.4706 8.25 13.8522 8.25 14.25C8.25 14.6478 8.40804 15.0294 8.68934 15.3107C8.97064 15.592 9.35218 15.75 9.75 15.75H11.25V17.25H9.75C8.95435 17.25 8.19129 16.9339 7.62868 16.3713C7.06607 15.8087 6.75 15.0456 6.75 14.25Z" fill="#F9663A"/>
<path d="M10.5 13.5H13.5V15H10.5V13.5Z" fill="#F9663A"/>
<path d="M6.75 3.75C6.30499 3.75 5.86998 3.88196 5.49997 4.12919C5.12996 4.37643 4.84157 4.72783 4.67127 5.13896C4.50097 5.5501 4.45642 6.0025 4.54323 6.43895C4.63005 6.87541 4.84434 7.27632 5.15901 7.59099C5.47368 7.90566 5.87459 8.11995 6.31105 8.20677C6.7475 8.29358 7.1999 8.24903 7.61104 8.07873C8.02217 7.90843 8.37357 7.62004 8.62081 7.25003C8.86804 6.88002 9 6.44501 9 6C8.99822 5.40381 8.7606 4.83255 8.33902 4.41098C7.91745 3.98941 7.34619 3.75178 6.75 3.75ZM6.75 6.75C6.60166 6.75 6.45666 6.70601 6.33332 6.6236C6.20999 6.54119 6.11386 6.42406 6.05709 6.28701C6.00033 6.14997 5.98547 5.99917 6.01441 5.85368C6.04335 5.7082 6.11478 5.57456 6.21967 5.46967C6.32456 5.36478 6.4582 5.29335 6.60368 5.26441C6.74917 5.23547 6.89997 5.25032 7.03701 5.30709C7.17406 5.36386 7.29119 5.45999 7.3736 5.58332C7.45601 5.70666 7.5 5.85166 7.5 6C7.49941 6.19873 7.4202 6.38915 7.27968 6.52967C7.13915 6.6702 6.94873 6.74941 6.75 6.75Z" fill="#F9663A"/>
<path d="M3.9825 11.25C4.80835 10.7168 5.76712 10.4258 6.75 10.41C6.94537 10.4125 7.14034 10.4285 7.3335 10.458C8.0546 9.9955 8.89333 9.74977 9.75 9.75H9.9405C8.95778 9.22415 7.86436 8.93884 6.75 8.9175C5.2275 8.9175 2.25 9.72 2.25 11.6025V12.75H5.51175C5.7078 12.1965 6.01052 11.6869 6.40275 11.25H3.9825Z" fill="#F9663A"/>
<path d="M12 1.49995H8.865C8.71143 1.06153 8.42541 0.681667 8.0465 0.412913C7.6676 0.14416 7.21454 -0.000202417 6.75 -0.000202417C6.28546 -0.000202417 5.8324 0.14416 5.4535 0.412913C5.07459 0.681667 4.78857 1.06153 4.635 1.49995H1.5C1.10254 1.50114 0.721699 1.65955 0.440651 1.9406C0.159603 2.22165 0.00118705 2.60249 0 2.99995L0 13.4999C0.00118705 13.8974 0.159603 14.2783 0.440651 14.5593C0.721699 14.8403 1.10254 14.9988 1.5 14.9999H5.35575C5.21432 14.51 5.21432 13.9899 5.35575 13.4999H1.5V2.99995H12V9.74995H13.5V2.99995C13.4988 2.60249 13.3404 2.22165 13.0593 1.9406C12.7783 1.65955 12.3975 1.50114 12 1.49995ZM6.75 2.43745C6.60112 2.43647 6.45862 2.37689 6.35334 2.27161C6.24806 2.16633 6.18848 2.02383 6.1875 1.87495C6.1875 1.72577 6.24676 1.58269 6.35225 1.4772C6.45774 1.37171 6.60082 1.31245 6.75 1.31245C6.89918 1.31245 7.04226 1.37171 7.14775 1.4772C7.25324 1.58269 7.3125 1.72577 7.3125 1.87495C7.31152 2.02383 7.25194 2.16633 7.14666 2.27161C7.04138 2.37689 6.89888 2.43647 6.75 2.43745Z" fill="#F9663A"/>
</g>
<defs>
<clipPath id="clip0_1667_18761">
<rect width="18" height="18" fill="white"/>
</clipPath>
</defs>
</svg>
