<svg width="26" height="28" viewBox="0 0 26 28" fill="none" xmlns="http://www.w3.org/2000/svg">
<path d="M12.8087 6.93604L12.5574 7.03139L2.51951 11.2353L0.237305 12.1758L1.56632 12.7078V21.4909C1.08691 21.8393 0.763289 22.4746 0.763289 23.2175C0.763289 23.7499 0.932498 24.2605 1.23369 24.637C1.53489 25.0135 1.94339 25.225 2.36935 25.225C2.7953 25.225 3.20381 25.0135 3.505 24.637C3.8062 24.2605 3.97541 23.7499 3.97541 23.2175C3.97541 22.4746 3.65179 21.8393 3.17238 21.4909V13.4004L4.77844 14.0579V19.2023C4.77844 20.0254 5.17995 20.708 5.65695 21.1798C6.13395 21.6485 6.72659 21.9798 7.43807 22.2769C8.86265 22.8691 10.7401 23.2175 12.8087 23.2175C14.8773 23.2175 16.7548 22.8701 18.1794 22.2759C18.8909 21.9798 19.4835 21.6485 19.9605 21.1788C20.4375 20.708 20.839 20.0254 20.839 19.2023V14.0579L23.0979 13.1163L25.3802 12.1758L23.0971 11.2342L13.0593 7.03139L12.8087 6.93604ZM12.8087 9.03897L20.3371 12.1758L12.8087 15.3126L5.28033 12.1758L12.8087 9.03897ZM6.3845 14.7485L12.5582 17.3202L12.8087 17.4146L13.0601 17.3192L19.233 14.7475V19.2023C19.233 19.2123 19.2362 19.3288 18.9816 19.5787C18.7279 19.8297 18.2725 20.1459 17.6767 20.3948C16.4866 20.8897 14.732 21.2099 12.8087 21.2099C10.8855 21.2099 9.13086 20.8907 7.93996 20.3938C7.34572 20.1459 6.8896 19.8287 6.63584 19.5787C6.38048 19.3278 6.3845 19.2123 6.3845 19.2023V14.7475V14.7485Z" fill="white"/>
</svg>
