<svg width="22" height="22" viewBox="0 0 22 22" fill="none" xmlns="http://www.w3.org/2000/svg">
<path d="M14.1184 7.92892C14.5309 8.32136 15.2019 8.32136 15.6157 7.92892C16.0282 7.5378 16.0282 6.90255 15.6157 6.51011C15.4164 6.32144 15.1471 6.21558 14.8664 6.21558C14.5857 6.21558 14.3163 6.32144 14.117 6.51011C13.7045 6.90255 13.7045 7.5378 14.117 7.92892H14.1184Z" fill="#F9663A"/>
<path d="M3.48692 10.1207C3.22991 10.3638 3.02591 10.6531 2.88668 10.9718C2.74746 11.2906 2.67578 11.6325 2.67578 11.9779C2.67578 12.3232 2.74746 12.6652 2.88668 12.9839C3.02591 13.3027 3.22991 13.592 3.48692 13.8351L8.03817 18.1519C9.11892 19.1769 10.8707 19.1769 11.9528 18.1519L18.4015 12.0356C18.9144 11.5474 19.2059 10.8872 19.2114 10.1968L19.2444 5.76975C19.2459 5.42139 19.1749 5.07621 19.0357 4.7542C18.8965 4.43219 18.6917 4.13973 18.4333 3.89377C18.1748 3.64781 17.8678 3.45322 17.5301 3.32127C17.1923 3.18932 16.8305 3.12263 16.4655 3.12506L11.9775 3.14344C11.2479 3.14575 10.5485 3.42203 10.0305 3.91256L3.48692 10.1207ZM4.46592 12.9058C4.33741 12.7843 4.23541 12.6396 4.1658 12.4803C4.09619 12.3209 4.06035 12.1499 4.06035 11.9772C4.06035 11.8045 4.09619 11.6336 4.1658 11.4742C4.23541 11.3148 4.33741 11.1702 4.46592 11.0486L11.0109 4.8405C11.2696 4.59555 11.6187 4.45744 11.983 4.45594L16.471 4.43756C17.241 4.43494 17.8667 5.0295 17.8598 5.76056L17.8268 10.1876C17.8239 10.533 17.6781 10.8632 17.4212 11.1064L10.9738 17.2226C10.4334 17.7358 9.55754 17.7358 9.01717 17.2226L4.46592 12.9045V12.9058Z" fill="#F9663A"/>
</svg>
