<svg width="42" height="36" viewBox="0 0 42 36" fill="none" xmlns="http://www.w3.org/2000/svg">
<g opacity="0.75">
<path d="M41.79 16.8789C41.79 16.6479 41.664 16.4169 41.601 16.1859C41.5038 15.7784 41.3775 15.3784 41.223 14.9889C41.118 14.7369 40.971 14.4849 40.845 14.2119C40.719 13.9389 40.53 13.5819 40.341 13.2879C40.152 12.9939 39.9 12.8469 39.9 12.6789C39.9 12.5109 39.48 12.1539 39.249 11.9019C39.018 11.6499 38.808 11.4819 38.577 11.2719L37.8 10.5789L37.044 10.0749C36.7472 9.8933 36.4385 9.73193 36.12 9.59191L35.301 9.21392C34.958 9.08688 34.6073 8.98167 34.251 8.89891C33.9688 8.81589 33.6811 8.75273 33.39 8.70991L32.907 8.47891C32.0501 6.00313 30.4428 3.85601 28.3087 2.33633C26.1746 0.816657 23.6199 0 21 0C18.3801 0 15.8254 0.816657 13.6913 2.33633C11.5572 3.85601 9.94989 6.00313 9.093 8.47891L8.715 8.58391C8.42394 8.62673 8.13623 8.68989 7.854 8.77291C7.49771 8.85567 7.14701 8.96088 6.804 9.08791L5.985 9.46592C5.66648 9.60593 5.35778 9.7673 5.061 9.94891L4.305 10.5789L3.528 11.2299C3.297 11.4399 3.066 11.6289 2.856 11.8599C2.646 12.0909 2.415 12.3849 2.205 12.6369C1.995 12.8889 1.827 13.1199 1.659 13.3929C1.491 13.6659 1.323 14.0019 1.155 14.3169C0.987 14.6319 0.882 14.8419 0.777 15.0939C0.622528 15.4834 0.496204 15.8834 0.399 16.2909C0.399 16.5219 0.252 16.7529 0.21 16.9839C0.0792888 17.6411 0.00899585 18.3089 0 18.9789C0.0098446 19.6201 0.0730629 20.2593 0.189 20.8899C0.189 21.0999 0.294 21.2889 0.336 21.4989C0.439797 21.9115 0.565984 22.3181 0.714 22.7169L0.966 23.3259C1.15086 23.7309 1.36128 24.1237 1.596 24.5019L1.89 24.9639C1.92021 25.0228 1.95534 25.079 1.995 25.1319L2.1 25.2789C3.07804 26.583 4.34628 27.6414 5.80426 28.3704C7.26224 29.0994 8.86993 29.4789 10.5 29.4789H16.8V26.6019C16.1619 26.972 15.4376 27.1676 14.7 27.1689C13.5623 27.1583 12.4751 26.6977 11.676 25.8879C11.2923 25.491 10.9906 25.0223 10.7882 24.5087C10.5858 23.9951 10.4867 23.4466 10.4964 22.8946C10.5062 22.3427 10.6247 21.798 10.8451 21.2919C11.0655 20.7858 11.3835 20.328 11.781 19.9449L18.081 13.8549C18.8648 13.0994 19.9114 12.6778 21 12.6789C22.1121 12.6836 23.177 13.1292 23.961 13.9179L30.261 20.2179C31.0433 21.0048 31.4823 22.0693 31.4823 23.1789C31.4823 24.2885 31.0433 25.353 30.261 26.1399C29.477 26.9287 28.4121 27.3742 27.3 27.3789C26.5613 27.3859 25.8348 27.1897 25.2 26.8119V29.4789H31.5C33.1301 29.4789 34.7378 29.0994 36.1957 28.3704C37.6537 27.6414 38.922 26.583 39.9 25.2789L40.005 25.1739C40.0447 25.121 40.0798 25.0648 40.11 25.0059L40.404 24.5439C40.6387 24.1657 40.8491 23.7729 41.034 23.3679L41.286 22.7589C41.434 22.3601 41.5602 21.9535 41.664 21.5409C41.664 21.3309 41.769 21.1419 41.811 20.9319C41.9293 20.2875 41.9925 19.6341 42 18.9789C41.9976 18.2738 41.9272 17.5706 41.79 16.8789Z" fill="#182E7C"/>
<path d="M41.79 16.8789C41.79 16.6479 41.664 16.4169 41.601 16.1859C41.5038 15.7784 41.3775 15.3784 41.223 14.9889C41.118 14.7369 40.971 14.4849 40.845 14.2119C40.719 13.9389 40.53 13.5819 40.341 13.2879C40.152 12.9939 39.9 12.8469 39.9 12.6789C39.9 12.5109 39.48 12.1539 39.249 11.9019C39.018 11.6499 38.808 11.4819 38.577 11.2719L37.8 10.5789L37.044 10.0749C36.7472 9.8933 36.4385 9.73193 36.12 9.59191L35.301 9.21392C34.958 9.08688 34.6073 8.98167 34.251 8.89891C33.9688 8.81589 33.6811 8.75273 33.39 8.70991L32.907 8.47891C32.0501 6.00313 30.4428 3.85601 28.3087 2.33633C26.1746 0.816657 23.6199 0 21 0C18.3801 0 15.8254 0.816657 13.6913 2.33633C11.5572 3.85601 9.94989 6.00313 9.093 8.47891L8.715 8.58391C8.42394 8.62673 8.13623 8.68989 7.854 8.77291C7.49771 8.85567 7.14701 8.96088 6.804 9.08791L5.985 9.46592C5.66648 9.60593 5.35778 9.7673 5.061 9.94891L4.305 10.5789L3.528 11.2299C3.297 11.4399 3.066 11.6289 2.856 11.8599C2.646 12.0909 2.415 12.3849 2.205 12.6369C1.995 12.8889 1.827 13.1199 1.659 13.3929C1.491 13.6659 1.323 14.0019 1.155 14.3169C0.987 14.6319 0.882 14.8419 0.777 15.0939C0.622528 15.4834 0.496204 15.8834 0.399 16.2909C0.399 16.5219 0.252 16.7529 0.21 16.9839C0.0792888 17.6411 0.00899585 18.3089 0 18.9789C0.0098446 19.6201 0.0730629 20.2593 0.189 20.8899C0.189 21.0999 0.294 21.2889 0.336 21.4989C0.439797 21.9115 0.565984 22.3181 0.714 22.7169L0.966 23.3259C1.15086 23.7309 1.36128 24.1237 1.596 24.5019L1.89 24.9639C1.92021 25.0228 1.95534 25.079 1.995 25.1319L2.1 25.2789C3.07804 26.583 4.34628 27.6414 5.80426 28.3704C7.26224 29.0994 8.86993 29.4789 10.5 29.4789H16.8V26.6019C16.1619 26.972 15.4376 27.1676 14.7 27.1689C13.5623 27.1583 12.4751 26.6977 11.676 25.8879C11.2923 25.491 10.9906 25.0223 10.7882 24.5087C10.5858 23.9951 10.4867 23.4466 10.4964 22.8946C10.5062 22.3427 10.6247 21.798 10.8451 21.2919C11.0655 20.7858 11.3835 20.328 11.781 19.9449L18.081 13.8549C18.8648 13.0994 19.9114 12.6778 21 12.6789C22.1121 12.6836 23.177 13.1292 23.961 13.9179L30.261 20.2179C31.0433 21.0048 31.4823 22.0693 31.4823 23.1789C31.4823 24.2885 31.0433 25.353 30.261 26.1399C29.477 26.9287 28.4121 27.3742 27.3 27.3789C26.5613 27.3859 25.8348 27.1897 25.2 26.8119V29.4789H31.5C33.1301 29.4789 34.7378 29.0994 36.1957 28.3704C37.6537 27.6414 38.922 26.583 39.9 25.2789L40.005 25.1739C40.0447 25.121 40.0798 25.0648 40.11 25.0059L40.404 24.5439C40.6387 24.1657 40.8491 23.7729 41.034 23.3679L41.286 22.7589C41.434 22.3601 41.5602 21.9535 41.664 21.5409C41.664 21.3309 41.769 21.1419 41.811 20.9319C41.9293 20.2875 41.9925 19.6341 42 18.9789C41.9976 18.2738 41.9272 17.5706 41.79 16.8789Z" fill="white" fill-opacity="0.5"/>
<path d="M22.491 15.3879C22.0984 15.0031 21.5706 14.7876 21.021 14.7876C20.4713 14.7876 19.9435 15.0031 19.551 15.3879L13.251 21.4779C13.0281 21.6618 12.8456 21.8897 12.7149 22.1473C12.5841 22.4049 12.508 22.6867 12.4911 22.9751C12.4742 23.2635 12.5171 23.5523 12.6169 23.8234C12.7168 24.0945 12.8715 24.3421 13.0713 24.5507C13.2712 24.7593 13.512 24.9243 13.7786 25.0356C14.0452 25.1469 14.3319 25.202 14.6208 25.1974C14.9096 25.1928 15.1945 25.1287 15.4574 25.009C15.7204 24.8894 15.9558 24.7167 16.149 24.5019L18.9 21.8349V33.6789C18.9 34.2359 19.1212 34.77 19.515 35.1638C19.9089 35.5577 20.443 35.7789 21 35.7789C21.5569 35.7789 22.0911 35.5577 22.4849 35.1638C22.8787 34.77 23.1 34.2359 23.1 33.6789V21.9399L25.809 24.6699C26.0042 24.8667 26.2364 25.023 26.4924 25.1296C26.7483 25.2362 27.0227 25.2911 27.3 25.2911C27.5772 25.2911 27.8517 25.2362 28.1076 25.1296C28.3635 25.023 28.5957 24.8667 28.791 24.6699C28.9878 24.4747 29.144 24.2424 29.2506 23.9865C29.3572 23.7306 29.4121 23.4561 29.4121 23.1789C29.4121 22.9017 29.3572 22.6272 29.2506 22.3713C29.144 22.1154 28.9878 21.8831 28.791 21.6879L22.491 15.3879Z" fill="#182E7C"/>
<path d="M22.491 15.3879C22.0984 15.0031 21.5706 14.7876 21.021 14.7876C20.4713 14.7876 19.9435 15.0031 19.551 15.3879L13.251 21.4779C13.0281 21.6618 12.8456 21.8897 12.7149 22.1473C12.5841 22.4049 12.508 22.6867 12.4911 22.9751C12.4742 23.2635 12.5171 23.5523 12.6169 23.8234C12.7168 24.0945 12.8715 24.3421 13.0713 24.5507C13.2712 24.7593 13.512 24.9243 13.7786 25.0356C14.0452 25.1469 14.3319 25.202 14.6208 25.1974C14.9096 25.1928 15.1945 25.1287 15.4574 25.009C15.7204 24.8894 15.9558 24.7167 16.149 24.5019L18.9 21.8349V33.6789C18.9 34.2359 19.1212 34.77 19.515 35.1638C19.9089 35.5577 20.443 35.7789 21 35.7789C21.5569 35.7789 22.0911 35.5577 22.4849 35.1638C22.8787 34.77 23.1 34.2359 23.1 33.6789V21.9399L25.809 24.6699C26.0042 24.8667 26.2364 25.023 26.4924 25.1296C26.7483 25.2362 27.0227 25.2911 27.3 25.2911C27.5772 25.2911 27.8517 25.2362 28.1076 25.1296C28.3635 25.023 28.5957 24.8667 28.791 24.6699C28.9878 24.4747 29.144 24.2424 29.2506 23.9865C29.3572 23.7306 29.4121 23.4561 29.4121 23.1789C29.4121 22.9017 29.3572 22.6272 29.2506 22.3713C29.144 22.1154 28.9878 21.8831 28.791 21.6879L22.491 15.3879Z" fill="white" fill-opacity="0.5"/>
</g>
</svg>
