<svg width="38" height="28" viewBox="0 0 38 28" fill="none" xmlns="http://www.w3.org/2000/svg">
<g opacity="0.75">
<path d="M37.5163 13.0127C37.5163 12.8387 37.4047 12.6647 37.3488 12.4907C37.2627 12.1837 37.1508 11.8824 37.0139 11.5891C36.9209 11.3992 36.7906 11.2094 36.679 11.0038C36.5673 10.7981 36.3999 10.5292 36.2324 10.3078C36.065 10.0863 35.8417 9.9756 35.8417 9.84905C35.8417 9.7225 35.4695 9.4536 35.2649 9.26378C35.0602 9.07396 34.8741 8.94741 34.6694 8.78923L33.981 8.26723L33.3111 7.8876C33.0481 7.75079 32.7746 7.62924 32.4924 7.52378L31.7667 7.23905C31.4628 7.14336 31.152 7.06411 30.8363 7.00178C30.5863 6.93924 30.3314 6.89167 30.0735 6.85941L29.6455 6.68541C28.8862 4.82053 27.4621 3.20323 25.5712 2.05853C23.6802 0.913843 21.4166 0.298698 19.0952 0.298698C16.7739 0.298698 14.5103 0.913843 12.6193 2.05853C10.7284 3.20323 9.30424 4.82053 8.54499 6.68541L8.21006 6.7645C7.95217 6.79676 7.69724 6.84433 7.44717 6.90687C7.13147 6.9692 6.82074 7.04845 6.51681 7.14414L5.79113 7.42887C5.50891 7.53434 5.23538 7.65588 4.97242 7.79269L4.30256 8.26723L3.6141 8.7576C3.40942 8.91578 3.20474 9.05814 3.01867 9.23214C2.8326 9.40614 2.62792 9.62759 2.44185 9.81741C2.25578 10.0072 2.10692 10.1812 1.95806 10.3869C1.80921 10.5925 1.66035 10.8456 1.51149 11.0829C1.36263 11.3201 1.2696 11.4783 1.17656 11.6681C1.03969 11.9615 0.927762 12.2628 0.841634 12.5698C0.841634 12.7438 0.711384 12.9178 0.674169 13.0918C0.558352 13.5868 0.496069 14.0898 0.488098 14.5945C0.496821 15.0774 0.552836 15.5589 0.655562 16.034C0.655562 16.1921 0.748598 16.3345 0.785813 16.4927C0.877782 16.8034 0.989591 17.1097 1.12074 17.4101L1.34403 17.8689C1.50782 18.1739 1.69427 18.4698 1.90224 18.7547L2.16274 19.1027C2.18951 19.147 2.22063 19.1894 2.25578 19.2292L2.34881 19.34C3.21541 20.3222 4.33913 21.1195 5.63099 21.6686C6.92284 22.2177 8.34734 22.5036 9.79167 22.5036H15.3738V20.3365C14.8085 20.6153 14.1667 20.7626 13.5131 20.7636C12.5051 20.7556 11.5417 20.4087 10.8337 19.7987C10.4937 19.4997 10.2264 19.1467 10.0471 18.7598C9.86772 18.3729 9.77986 17.9598 9.7885 17.544C9.79714 17.1282 9.90212 16.718 10.0974 16.3368C10.2927 15.9555 10.5745 15.6107 10.9267 15.3221L16.5088 10.7349C17.2034 10.1658 18.1306 9.84821 19.0952 9.84905C20.0806 9.85258 21.0242 10.1882 21.7188 10.7823L27.301 15.5278C27.9941 16.1205 28.3832 16.9224 28.3832 17.7581C28.3832 18.5939 27.9941 19.3958 27.301 19.9885C26.6063 20.5826 25.6628 20.9182 24.6774 20.9218C24.0228 20.927 23.3792 20.7793 22.8167 20.4947V22.5036H28.3988C29.8431 22.5036 31.2676 22.2177 32.5595 21.6686C33.8513 21.1195 34.9751 20.3222 35.8417 19.34L35.9347 19.2609C35.9698 19.221 36.001 19.1787 36.0277 19.1343L36.2882 18.7863C36.4962 18.5014 36.6827 18.2055 36.8465 17.9005L37.0697 17.4418C37.2009 17.1414 37.3127 16.8351 37.4047 16.5243C37.4047 16.3661 37.4977 16.2238 37.5349 16.0656C37.6397 15.5802 37.6957 15.088 37.7024 14.5945C37.7002 14.0634 37.6379 13.5337 37.5163 13.0127Z" fill="#182E7C"/>
<path d="M37.5163 13.0127C37.5163 12.8387 37.4047 12.6647 37.3488 12.4907C37.2627 12.1837 37.1508 11.8824 37.0139 11.5891C36.9209 11.3992 36.7906 11.2094 36.679 11.0038C36.5673 10.7981 36.3999 10.5292 36.2324 10.3078C36.065 10.0863 35.8417 9.9756 35.8417 9.84905C35.8417 9.7225 35.4695 9.4536 35.2649 9.26378C35.0602 9.07396 34.8741 8.94741 34.6694 8.78923L33.981 8.26723L33.3111 7.8876C33.0481 7.75079 32.7746 7.62924 32.4924 7.52378L31.7667 7.23905C31.4628 7.14336 31.152 7.06411 30.8363 7.00178C30.5863 6.93924 30.3314 6.89167 30.0735 6.85941L29.6455 6.68541C28.8862 4.82053 27.4621 3.20323 25.5712 2.05853C23.6802 0.913843 21.4166 0.298698 19.0952 0.298698C16.7739 0.298698 14.5103 0.913843 12.6193 2.05853C10.7284 3.20323 9.30424 4.82053 8.54499 6.68541L8.21006 6.7645C7.95217 6.79676 7.69724 6.84433 7.44717 6.90687C7.13147 6.9692 6.82074 7.04845 6.51681 7.14414L5.79113 7.42887C5.50891 7.53434 5.23538 7.65588 4.97242 7.79269L4.30256 8.26723L3.6141 8.7576C3.40942 8.91578 3.20474 9.05814 3.01867 9.23214C2.8326 9.40614 2.62792 9.62759 2.44185 9.81741C2.25578 10.0072 2.10692 10.1812 1.95806 10.3869C1.80921 10.5925 1.66035 10.8456 1.51149 11.0829C1.36263 11.3201 1.2696 11.4783 1.17656 11.6681C1.03969 11.9615 0.927762 12.2628 0.841634 12.5698C0.841634 12.7438 0.711384 12.9178 0.674169 13.0918C0.558352 13.5868 0.496069 14.0898 0.488098 14.5945C0.496821 15.0774 0.552836 15.5589 0.655562 16.034C0.655562 16.1921 0.748598 16.3345 0.785813 16.4927C0.877782 16.8034 0.989591 17.1097 1.12074 17.4101L1.34403 17.8689C1.50782 18.1739 1.69427 18.4698 1.90224 18.7547L2.16274 19.1027C2.18951 19.147 2.22063 19.1894 2.25578 19.2292L2.34881 19.34C3.21541 20.3222 4.33913 21.1195 5.63099 21.6686C6.92284 22.2177 8.34734 22.5036 9.79167 22.5036H15.3738V20.3365C14.8085 20.6153 14.1667 20.7626 13.5131 20.7636C12.5051 20.7556 11.5417 20.4087 10.8337 19.7987C10.4937 19.4997 10.2264 19.1467 10.0471 18.7598C9.86772 18.3729 9.77986 17.9598 9.7885 17.544C9.79714 17.1282 9.90212 16.718 10.0974 16.3368C10.2927 15.9555 10.5745 15.6107 10.9267 15.3221L16.5088 10.7349C17.2034 10.1658 18.1306 9.84821 19.0952 9.84905C20.0806 9.85258 21.0242 10.1882 21.7188 10.7823L27.301 15.5278C27.9941 16.1205 28.3832 16.9224 28.3832 17.7581C28.3832 18.5939 27.9941 19.3958 27.301 19.9885C26.6063 20.5826 25.6628 20.9182 24.6774 20.9218C24.0228 20.927 23.3792 20.7793 22.8167 20.4947V22.5036H28.3988C29.8431 22.5036 31.2676 22.2177 32.5595 21.6686C33.8513 21.1195 34.9751 20.3222 35.8417 19.34L35.9347 19.2609C35.9698 19.221 36.001 19.1787 36.0277 19.1343L36.2882 18.7863C36.4962 18.5014 36.6827 18.2055 36.8465 17.9005L37.0697 17.4418C37.2009 17.1414 37.3127 16.8351 37.4047 16.5243C37.4047 16.3661 37.4977 16.2238 37.5349 16.0656C37.6397 15.5802 37.6957 15.088 37.7024 14.5945C37.7002 14.0634 37.6379 13.5337 37.5163 13.0127Z" fill="white" fill-opacity="0.5"/>
<path d="M20.4163 11.8896C20.0684 11.5998 19.6008 11.4374 19.1138 11.4374C18.6267 11.4374 18.1591 11.5998 17.8113 11.8896L12.2291 16.4769C12.0317 16.6154 11.87 16.787 11.7541 16.9811C11.6383 17.1751 11.5708 17.3874 11.5558 17.6046C11.5409 17.8219 11.5789 18.0394 11.6673 18.2436C11.7558 18.4478 11.8929 18.6343 12.07 18.7914C12.2471 18.9485 12.4604 19.0729 12.6967 19.1567C12.9329 19.2405 13.1869 19.282 13.4429 19.2786C13.6988 19.2751 13.9512 19.2268 14.1842 19.1367C14.4171 19.0465 14.6257 18.9165 14.7969 18.7547L17.2344 16.7458V25.6672C17.2344 26.0868 17.4305 26.4891 17.7794 26.7857C18.1284 27.0824 18.6017 27.249 19.0952 27.249C19.5887 27.249 20.0619 27.0824 20.4109 26.7857C20.7598 26.4891 20.9559 26.0868 20.9559 25.6672V16.8249L23.3562 18.8812C23.5292 19.0295 23.735 19.1472 23.9617 19.2275C24.1885 19.3078 24.4317 19.3491 24.6773 19.3491C24.9229 19.3491 25.1661 19.3078 25.3929 19.2275C25.6196 19.1472 25.8254 19.0295 25.9984 18.8812C26.1728 18.7342 26.3112 18.5592 26.4057 18.3665C26.5002 18.1737 26.5488 17.967 26.5488 17.7581C26.5488 17.5493 26.5002 17.3426 26.4057 17.1498C26.3112 16.957 26.1728 16.7821 25.9984 16.635L20.4163 11.8896Z" fill="#182E7C"/>
<path d="M20.4163 11.8896C20.0684 11.5998 19.6008 11.4374 19.1138 11.4374C18.6267 11.4374 18.1591 11.5998 17.8113 11.8896L12.2291 16.4769C12.0317 16.6154 11.87 16.787 11.7541 16.9811C11.6383 17.1751 11.5708 17.3874 11.5558 17.6046C11.5409 17.8219 11.5789 18.0394 11.6673 18.2436C11.7558 18.4478 11.8929 18.6343 12.07 18.7914C12.2471 18.9485 12.4604 19.0729 12.6967 19.1567C12.9329 19.2405 13.1869 19.282 13.4429 19.2786C13.6988 19.2751 13.9512 19.2268 14.1842 19.1367C14.4171 19.0465 14.6257 18.9165 14.7969 18.7547L17.2344 16.7458V25.6672C17.2344 26.0868 17.4305 26.4891 17.7794 26.7857C18.1284 27.0824 18.6017 27.249 19.0952 27.249C19.5887 27.249 20.0619 27.0824 20.4109 26.7857C20.7598 26.4891 20.9559 26.0868 20.9559 25.6672V16.8249L23.3562 18.8812C23.5292 19.0295 23.735 19.1472 23.9617 19.2275C24.1885 19.3078 24.4317 19.3491 24.6773 19.3491C24.9229 19.3491 25.1661 19.3078 25.3929 19.2275C25.6196 19.1472 25.8254 19.0295 25.9984 18.8812C26.1728 18.7342 26.3112 18.5592 26.4057 18.3665C26.5002 18.1737 26.5488 17.967 26.5488 17.7581C26.5488 17.5493 26.5002 17.3426 26.4057 17.1498C26.3112 16.957 26.1728 16.7821 25.9984 16.635L20.4163 11.8896Z" fill="white" fill-opacity="0.5"/>
</g>
</svg>
