<svg width="21" height="22" viewBox="0 0 21 22" fill="none" xmlns="http://www.w3.org/2000/svg">
<path d="M18.6415 5.81595L18.156 5.53565C18.2292 5.2456 18.2292 4.9419 18.156 4.65185L18.6415 4.37155C18.6979 4.33946 18.7475 4.29654 18.7872 4.24524C18.827 4.19394 18.8562 4.13528 18.8732 4.07264C18.8902 4.01 18.8947 3.94461 18.8863 3.88024C18.878 3.81587 18.857 3.75379 18.8245 3.69758C18.792 3.64137 18.7488 3.59213 18.6972 3.5527C18.6457 3.51327 18.5868 3.48443 18.5241 3.46784C18.4613 3.45125 18.3959 3.44724 18.3316 3.45603C18.2673 3.46482 18.2053 3.48625 18.1493 3.51908L17.6626 3.80004C17.4484 3.59166 17.1858 3.43974 16.8984 3.35789V2.79688C16.8984 2.66634 16.8466 2.54115 16.7543 2.44885C16.662 2.35654 16.5368 2.30469 16.4062 2.30469C16.2757 2.30469 16.1505 2.35654 16.0582 2.44885C15.9659 2.54115 15.9141 2.66634 15.9141 2.79688V3.3578C15.6266 3.43968 15.3641 3.59163 15.1499 3.80004L14.6632 3.51908C14.6072 3.48625 14.5452 3.46482 14.4809 3.45603C14.4166 3.44724 14.3512 3.45125 14.2884 3.46784C14.2257 3.48443 14.1668 3.51327 14.1153 3.5527C14.0637 3.59213 14.0205 3.64137 13.988 3.69758C13.9555 3.75379 13.9345 3.81587 13.9262 3.88024C13.9178 3.94461 13.9222 4.01 13.9393 4.07264C13.9563 4.13528 13.9855 4.19394 14.0253 4.24524C14.065 4.29654 14.1146 4.33946 14.171 4.37155L14.6565 4.65185C14.5833 4.9419 14.5833 5.2456 14.6565 5.53565L14.171 5.81595C14.1146 5.84804 14.065 5.89096 14.0253 5.94226C13.9855 5.99356 13.9563 6.05222 13.9393 6.11486C13.9222 6.1775 13.9178 6.24289 13.9262 6.30726C13.9345 6.37163 13.9555 6.43371 13.988 6.48992C14.0205 6.54613 14.0637 6.59537 14.1153 6.6348C14.1668 6.67423 14.2257 6.70307 14.2884 6.71966C14.3512 6.73625 14.4166 6.74026 14.4809 6.73147C14.5452 6.72268 14.6072 6.70125 14.6632 6.66842L15.1499 6.38747C15.3641 6.59584 15.6267 6.74776 15.9141 6.82961V7.39062C15.9141 7.52116 15.9659 7.64635 16.0582 7.73865C16.1505 7.83096 16.2757 7.88281 16.4062 7.88281C16.5368 7.88281 16.662 7.83096 16.7543 7.73865C16.8466 7.64635 16.8984 7.52116 16.8984 7.39062V6.8297C17.1859 6.74782 17.4484 6.59587 17.6626 6.38747L18.1493 6.66842C18.2053 6.70125 18.2673 6.72268 18.3316 6.73147C18.3959 6.74026 18.4613 6.73625 18.5241 6.71966C18.5868 6.70307 18.6457 6.67423 18.6972 6.6348C18.7488 6.59537 18.792 6.54613 18.8245 6.48992C18.857 6.43371 18.878 6.37163 18.8863 6.30726C18.8947 6.24289 18.8902 6.1775 18.8732 6.11486C18.8562 6.05222 18.827 5.99356 18.7872 5.94226C18.7475 5.89096 18.6979 5.84804 18.6415 5.81595ZM16.4062 5.91406C16.244 5.91406 16.0854 5.86595 15.9505 5.77582C15.8156 5.68568 15.7105 5.55756 15.6484 5.40767C15.5863 5.25778 15.57 5.09284 15.6017 4.93371C15.6333 4.77459 15.7115 4.62842 15.8262 4.5137C15.9409 4.39898 16.0871 4.32085 16.2462 4.2892C16.4053 4.25755 16.5703 4.27379 16.7202 4.33588C16.8701 4.39797 16.9982 4.50311 17.0883 4.63801C17.1784 4.77291 17.2266 4.93151 17.2266 5.09375C17.2263 5.31124 17.1398 5.51975 16.986 5.67353C16.8322 5.82732 16.6237 5.91382 16.4062 5.91406ZM18.2607 9.5679C18.1965 9.57556 18.1345 9.5958 18.0781 9.62744C18.0218 9.65909 17.9722 9.70153 17.9322 9.75234C17.8923 9.80315 17.8627 9.86133 17.8452 9.92356C17.8278 9.9858 17.8227 10.0509 17.8304 10.115C17.8653 10.4087 17.8828 10.7042 17.8828 11C17.8841 12.8802 17.1654 14.6896 15.8742 16.0564C15.1006 14.854 13.9447 13.9471 12.5927 13.4819C13.2667 13.0327 13.7782 12.3786 14.0517 11.6163C14.3253 10.8539 14.3462 10.0238 14.1116 9.24864C13.877 8.47346 13.3991 7.79435 12.7487 7.31169C12.0983 6.82903 11.3099 6.56844 10.5 6.56844C9.69008 6.56844 8.90166 6.82903 8.25127 7.31169C7.60088 7.79435 7.12305 8.47346 6.8884 9.24864C6.65375 10.0238 6.67474 10.8539 6.94827 11.6163C7.2218 12.3786 7.73335 13.0327 8.4073 13.4819C7.05532 13.9471 5.89938 14.854 5.1258 16.0564C4.1375 15.0076 3.47794 13.6924 3.22853 12.273C2.97912 10.8537 3.15077 9.39241 3.72231 8.06951C4.29385 6.74662 5.24026 5.62003 6.4447 4.82882C7.64915 4.03761 9.05892 3.6164 10.5 3.61719C10.7287 3.61719 10.9594 3.62777 11.1856 3.64861C11.3156 3.66057 11.445 3.62041 11.5454 3.53695C11.6458 3.45349 11.7089 3.33358 11.7209 3.20359C11.7328 3.07359 11.6927 2.94417 11.6092 2.84379C11.5258 2.74341 11.4058 2.6803 11.2758 2.66833C11.0179 2.64465 10.759 2.6328 10.5 2.63281C8.81302 2.63204 7.16525 3.14144 5.77304 4.09414C4.38083 5.04685 3.30928 6.3983 2.69909 7.97105C2.08889 9.54381 1.96859 11.2643 2.35396 12.9067C2.73934 14.5491 3.61239 16.0365 4.85846 17.1737C4.88667 17.2067 4.91913 17.2357 4.95501 17.2601C6.48319 18.6175 8.45615 19.3672 10.5001 19.3672C12.544 19.3671 14.517 18.6174 16.0451 17.2601C16.0809 17.2357 16.1132 17.2068 16.1413 17.1739C17.0004 16.3913 17.6866 15.4379 18.156 14.3747C18.6254 13.3116 18.8677 12.1622 18.8672 11C18.8672 10.6652 18.8473 10.3307 18.8078 9.99832C18.8001 9.93412 18.7799 9.87207 18.7483 9.8157C18.7166 9.75932 18.6742 9.70974 18.6234 9.66977C18.5726 9.6298 18.5144 9.60023 18.4521 9.58275C18.3899 9.56527 18.3249 9.56022 18.2607 9.5679ZM7.71094 10.3438C7.71094 9.79213 7.87451 9.25289 8.18098 8.79423C8.48744 8.33557 8.92304 7.97809 9.43267 7.76699C9.94231 7.55589 10.5031 7.50066 11.0441 7.60828C11.5851 7.71589 12.0821 7.98153 12.4722 8.37158C12.8622 8.76164 13.1279 9.25861 13.2355 9.79963C13.3431 10.3407 13.2879 10.9014 13.0768 11.4111C12.8657 11.9207 12.5082 12.3563 12.0495 12.6628C11.5909 12.9692 11.0516 13.1328 10.5 13.1328C9.76055 13.132 9.05164 12.8378 8.52877 12.315C8.0059 11.7921 7.71178 11.0832 7.71094 10.3438ZM5.86056 16.7383C6.34238 15.9386 7.02274 15.277 7.83562 14.8177C8.64851 14.3585 9.56631 14.1171 10.5 14.1171C11.4336 14.1171 12.3514 14.3585 13.1643 14.8177C13.9772 15.277 14.6575 15.9386 15.1394 16.7383C13.8272 17.8022 12.1892 18.3828 10.5 18.3828C8.81069 18.3828 7.17274 17.8022 5.86056 16.7383Z" fill="white"/>
</svg>
